<svg xmlns="http://www.w3.org/2000/svg" xmlns:xlink="http://www.w3.org/1999/xlink" width="450" zoomAndPan="magnify" viewBox="0 0 337.5 149.999998" height="200" preserveAspectRatio="xMidYMid meet" version="1.0"><defs><clipPath id="716f3291fb"><path d="M 64.355469 56 L 127 56 L 127 112 L 64.355469 112 Z M 64.355469 56 " clip-rule="nonzero"/></clipPath><clipPath id="6d22adf5b5"><path d="M 72 105 L 85 105 L 85 117.378906 L 72 117.378906 Z M 72 105 " clip-rule="nonzero"/></clipPath><clipPath id="a2fbf72821"><path d="M 107 105 L 120 105 L 120 117.378906 L 107 117.378906 Z M 107 105 " clip-rule="nonzero"/></clipPath><clipPath id="6b90ab75d2"><path d="M 143 105 L 156 105 L 156 117.378906 L 143 117.378906 Z M 143 105 " clip-rule="nonzero"/></clipPath><clipPath id="c8be0724e7"><path d="M 179 105 L 192 105 L 192 117.378906 L 179 117.378906 Z M 179 105 " clip-rule="nonzero"/></clipPath><clipPath id="22108660fc"><path d="M 215 105 L 228 105 L 228 117.378906 L 215 117.378906 Z M 215 105 " clip-rule="nonzero"/></clipPath><clipPath id="94149b5924"><path d="M 250 105 L 263 105 L 263 117.378906 L 250 117.378906 Z M 250 105 " clip-rule="nonzero"/></clipPath><clipPath id="f2766fd215"><path d="M 69 19.128906 L 121 19.128906 L 121 47 L 69 47 Z M 69 19.128906 " clip-rule="nonzero"/></clipPath><clipPath id="f48cce66ac"><path d="M 204 61 L 272.855469 61 L 272.855469 66 L 204 66 Z M 204 61 " clip-rule="nonzero"/></clipPath></defs><path fill="#80cc28" d="M 263.613281 91.09375 C 263.613281 94.214844 261.09375 96.746094 257.980469 96.746094 L 218.519531 96.746094 C 215.402344 96.746094 212.878906 94.214844 212.878906 91.09375 L 212.878906 74.613281 C 212.878906 71.488281 215.402344 68.957031 218.519531 68.957031 L 257.980469 68.957031 C 261.09375 68.957031 263.613281 71.488281 263.613281 74.613281 Z M 262.191406 64.085938 L 214.308594 64.085938 C 210.527344 64.085938 207.464844 67.15625 207.464844 70.945312 L 207.464844 104.476562 C 207.464844 107.785156 209.796875 110.542969 212.902344 111.195312 C 212.894531 111.050781 212.878906 110.910156 212.878906 110.765625 C 212.878906 106.242188 216.539062 102.574219 221.050781 102.574219 C 225.5625 102.574219 229.222656 106.242188 229.222656 110.765625 C 229.222656 110.960938 229.207031 111.152344 229.195312 111.339844 L 248.386719 111.339844 C 248.375 111.152344 248.355469 110.960938 248.355469 110.765625 C 248.355469 106.242188 252.015625 102.574219 256.53125 102.574219 C 261.042969 102.574219 264.699219 106.242188 264.699219 110.765625 L 264.695312 110.855469 C 267.234375 109.851562 269.03125 107.378906 269.03125 104.476562 L 269.03125 70.945312 C 269.03125 67.15625 265.96875 64.085938 262.191406 64.085938 " fill-opacity="1" fill-rule="nonzero"/><path fill="#00adef" d="M 192.167969 91.09375 C 192.167969 94.214844 189.644531 96.746094 186.53125 96.746094 L 147.070312 96.746094 C 143.957031 96.746094 141.433594 94.214844 141.433594 91.09375 L 141.433594 74.613281 C 141.433594 71.488281 143.957031 68.957031 147.070312 68.957031 L 186.53125 68.957031 C 189.644531 68.957031 192.167969 71.488281 192.167969 74.613281 Z M 190.742188 64.085938 L 142.855469 64.085938 C 139.078125 64.085938 136.019531 67.15625 136.019531 70.945312 L 136.019531 104.476562 C 136.019531 107.785156 138.351562 110.542969 141.453125 111.195312 C 141.445312 111.050781 141.433594 110.910156 141.433594 110.765625 C 141.433594 106.242188 145.089844 102.574219 149.605469 102.574219 C 154.117188 102.574219 157.773438 106.242188 157.773438 110.765625 C 157.773438 110.960938 157.761719 111.152344 157.746094 111.339844 L 176.9375 111.339844 C 176.925781 111.152344 176.910156 110.960938 176.910156 110.765625 C 176.910156 106.242188 180.566406 102.574219 185.082031 102.574219 C 189.59375 102.574219 193.25 106.242188 193.25 110.765625 L 193.25 110.855469 C 195.785156 109.851562 197.585938 107.378906 197.585938 104.476562 L 197.585938 70.945312 C 197.585938 67.15625 194.519531 64.085938 190.742188 64.085938 " fill-opacity="1" fill-rule="nonzero"/><path fill="#ed1c24" d="M 207.464844 101.382812 L 197.585938 101.382812 L 197.585938 99.09375 L 207.464844 99.09375 L 207.464844 101.382812 " fill-opacity="1" fill-rule="nonzero"/><g clip-path="url(#716f3291fb)"><path fill="#f14624" d="M 121.46875 78.730469 C 121.46875 81.28125 119.410156 83.34375 116.871094 83.34375 L 95.351562 83.34375 C 92.808594 83.34375 90.753906 81.28125 90.753906 78.730469 L 90.753906 65.277344 C 90.753906 62.730469 92.808594 60.667969 95.351562 60.667969 L 116.871094 60.667969 C 119.410156 60.667969 121.46875 62.730469 121.46875 65.277344 Z M 120.5 56.683594 L 91.726562 56.683594 C 88.613281 56.683594 86.085938 59.210938 86.085938 62.335938 L 86.085938 79.902344 L 71.40625 79.902344 C 67.628906 79.902344 64.570312 82.976562 64.570312 86.761719 L 64.570312 104.476562 C 64.570312 107.785156 66.902344 110.542969 70.007812 111.195312 C 70 111.050781 69.984375 110.910156 69.984375 110.765625 C 69.984375 106.242188 73.640625 102.574219 78.15625 102.574219 C 82.667969 102.574219 86.324219 106.242188 86.324219 110.765625 C 86.324219 110.960938 86.3125 111.152344 86.296875 111.339844 L 105.488281 111.339844 C 105.480469 111.152344 105.460938 110.960938 105.460938 110.765625 C 105.460938 106.242188 109.121094 102.574219 113.632812 102.574219 C 118.144531 102.574219 121.804688 106.242188 121.804688 110.765625 L 121.800781 110.855469 C 124.339844 109.851562 126.136719 107.378906 126.136719 104.476562 L 126.136719 62.335938 C 126.136719 59.210938 123.613281 56.683594 120.5 56.683594 " fill-opacity="1" fill-rule="nonzero"/></g><path fill="#ed1c24" d="M 136.019531 101.382812 L 126.136719 101.382812 L 126.136719 99.09375 L 136.019531 99.09375 L 136.019531 101.382812 " fill-opacity="1" fill-rule="nonzero"/><g clip-path="url(#6d22adf5b5)"><path fill="#fcd215" d="M 78.144531 114.136719 C 76.605469 114.136719 75.355469 112.882812 75.355469 111.339844 C 75.355469 109.792969 76.605469 108.539062 78.144531 108.539062 C 79.6875 108.539062 80.9375 109.792969 80.9375 111.339844 C 80.9375 112.882812 79.6875 114.136719 78.144531 114.136719 Z M 78.144531 105.332031 C 74.835938 105.332031 72.15625 108.019531 72.15625 111.339844 C 72.15625 114.65625 74.835938 117.34375 78.144531 117.34375 C 81.453125 117.34375 84.136719 114.65625 84.136719 111.339844 C 84.136719 108.019531 81.453125 105.332031 78.144531 105.332031 " fill-opacity="1" fill-rule="nonzero"/></g><g clip-path="url(#a2fbf72821)"><path fill="#fcd215" d="M 113.632812 114.136719 C 112.089844 114.136719 110.839844 112.882812 110.839844 111.339844 C 110.839844 109.792969 112.089844 108.539062 113.632812 108.539062 C 115.175781 108.539062 116.421875 109.792969 116.421875 111.339844 C 116.421875 112.882812 115.175781 114.136719 113.632812 114.136719 Z M 113.632812 105.332031 C 110.324219 105.332031 107.640625 108.019531 107.640625 111.339844 C 107.640625 114.65625 110.324219 117.34375 113.632812 117.34375 C 116.941406 117.34375 119.621094 114.65625 119.621094 111.339844 C 119.621094 108.019531 116.941406 105.332031 113.632812 105.332031 " fill-opacity="1" fill-rule="nonzero"/></g><g clip-path="url(#6b90ab75d2)"><path fill="#f68712" d="M 149.59375 114.136719 C 148.050781 114.136719 146.804688 112.882812 146.804688 111.339844 C 146.804688 109.792969 148.050781 108.539062 149.59375 108.539062 C 151.136719 108.539062 152.386719 109.792969 152.386719 111.339844 C 152.386719 112.882812 151.136719 114.136719 149.59375 114.136719 Z M 149.59375 105.332031 C 146.285156 105.332031 143.601562 108.019531 143.601562 111.339844 C 143.601562 114.65625 146.285156 117.34375 149.59375 117.34375 C 152.902344 117.34375 155.585938 114.65625 155.585938 111.339844 C 155.585938 108.019531 152.902344 105.332031 149.59375 105.332031 " fill-opacity="1" fill-rule="nonzero"/></g><g clip-path="url(#c8be0724e7)"><path fill="#f68712" d="M 184.890625 114.136719 C 183.347656 114.136719 182.101562 112.882812 182.101562 111.339844 C 182.101562 109.792969 183.347656 108.539062 184.890625 108.539062 C 186.429688 108.539062 187.679688 109.792969 187.679688 111.339844 C 187.679688 112.882812 186.429688 114.136719 184.890625 114.136719 Z M 185.082031 105.332031 C 181.773438 105.332031 179.089844 108.019531 179.089844 111.339844 C 179.089844 114.65625 181.773438 117.34375 185.082031 117.34375 C 188.390625 117.34375 191.070312 114.65625 191.070312 111.339844 C 191.070312 108.019531 188.390625 105.332031 185.082031 105.332031 " fill-opacity="1" fill-rule="nonzero"/></g><g clip-path="url(#22108660fc)"><path fill="#ed1c24" d="M 221.039062 114.136719 C 219.5 114.136719 218.25 112.882812 218.25 111.339844 C 218.25 109.792969 219.5 108.539062 221.039062 108.539062 C 222.582031 108.539062 223.835938 109.792969 223.835938 111.339844 C 223.835938 112.882812 222.582031 114.136719 221.039062 114.136719 Z M 221.039062 105.332031 C 217.734375 105.332031 215.054688 108.019531 215.054688 111.339844 C 215.054688 114.65625 217.734375 117.34375 221.039062 117.34375 C 224.351562 117.34375 227.03125 114.65625 227.03125 111.339844 C 227.03125 108.019531 224.351562 105.332031 221.039062 105.332031 " fill-opacity="1" fill-rule="nonzero"/></g><g clip-path="url(#94149b5924)"><path fill="#ed1c24" d="M 256.53125 114.136719 C 254.988281 114.136719 253.738281 112.882812 253.738281 111.339844 C 253.738281 109.792969 254.988281 108.539062 256.53125 108.539062 C 258.070312 108.539062 259.320312 109.792969 259.320312 111.339844 C 259.320312 112.882812 258.070312 114.136719 256.53125 114.136719 Z M 256.53125 105.332031 C 253.222656 105.332031 250.535156 108.019531 250.535156 111.339844 C 250.535156 114.65625 253.222656 117.34375 256.53125 117.34375 C 259.839844 117.34375 262.519531 114.65625 262.519531 111.339844 C 262.519531 108.019531 259.839844 105.332031 256.53125 105.332031 " fill-opacity="1" fill-rule="nonzero"/></g><path fill="#bf1b2c" d="M 117.289062 89.578125 C 117.289062 91.15625 116.015625 92.433594 114.441406 92.433594 C 112.867188 92.433594 111.589844 91.15625 111.589844 89.578125 C 111.589844 87.996094 112.867188 86.71875 114.441406 86.71875 C 116.015625 86.71875 117.289062 87.996094 117.289062 89.578125 " fill-opacity="1" fill-rule="nonzero"/><g clip-path="url(#f2766fd215)"><path fill="#d3d2d2" d="M 119.210938 33.515625 C 120.273438 32.023438 120.90625 30.199219 120.90625 28.226562 C 120.90625 23.183594 116.835938 19.105469 111.8125 19.105469 C 108.691406 19.105469 105.945312 20.675781 104.308594 23.070312 C 102.859375 21.566406 100.832031 20.628906 98.582031 20.628906 C 94.535156 20.628906 91.199219 23.664062 90.699219 27.582031 C 89.757812 26.8125 88.550781 26.34375 87.230469 26.34375 C 85.046875 26.34375 83.167969 27.625 82.285156 29.476562 C 81.140625 28.925781 79.867188 28.609375 78.515625 28.609375 C 73.699219 28.609375 69.796875 32.519531 69.796875 37.347656 C 69.796875 42.175781 73.699219 46.085938 78.515625 46.085938 C 81.964844 46.085938 84.941406 44.074219 86.351562 41.15625 C 87.328125 43.730469 89.808594 45.5625 92.71875 45.5625 C 95.613281 45.5625 98.085938 43.746094 99.070312 41.191406 C 100.03125 41.898438 101.210938 42.328125 102.496094 42.328125 C 103.949219 42.328125 105.277344 41.78125 106.296875 40.886719 C 106.929688 41.28125 107.679688 41.515625 108.484375 41.515625 C 109.652344 41.515625 110.703125 41.035156 111.457031 40.257812 C 112.386719 41.628906 113.957031 42.53125 115.738281 42.53125 C 118.59375 42.53125 120.90625 40.210938 120.90625 37.347656 C 120.90625 35.828125 120.25 34.460938 119.210938 33.515625 " fill-opacity="1" fill-rule="nonzero"/></g><path fill="#80cc28" d="M 113.632812 111.441406 C 113.632812 111.9375 113.230469 112.34375 112.730469 112.34375 L 79.046875 112.34375 C 78.550781 112.34375 78.144531 111.9375 78.144531 111.441406 C 78.144531 110.9375 78.550781 110.535156 79.046875 110.535156 L 112.730469 110.535156 C 113.230469 110.535156 113.632812 110.9375 113.632812 111.441406 " fill-opacity="1" fill-rule="nonzero"/><path fill="#f14624" d="M 184.542969 111.441406 C 184.542969 111.9375 184.140625 112.34375 183.640625 112.34375 L 149.960938 112.34375 C 149.460938 112.34375 149.058594 111.9375 149.058594 111.441406 C 149.058594 110.9375 149.460938 110.535156 149.960938 110.535156 L 183.640625 110.535156 C 184.140625 110.535156 184.542969 110.9375 184.542969 111.441406 " fill-opacity="1" fill-rule="nonzero"/><path fill="#00adef" d="M 256.53125 111.441406 C 256.53125 111.9375 256.121094 112.34375 255.628906 112.34375 L 221.941406 112.34375 C 221.449219 112.34375 221.039062 111.9375 221.039062 111.441406 C 221.039062 110.9375 221.449219 110.535156 221.941406 110.535156 L 255.628906 110.535156 C 256.121094 110.535156 256.53125 110.9375 256.53125 111.441406 " fill-opacity="1" fill-rule="nonzero"/><path fill="#f9a72b" d="M 201.230469 63.570312 C 201.230469 64.78125 200.253906 65.761719 199.050781 65.761719 L 135.582031 65.761719 C 134.371094 65.761719 133.394531 64.78125 133.394531 63.570312 C 133.394531 62.359375 134.371094 61.375 135.582031 61.375 L 199.050781 61.375 C 200.253906 61.375 201.230469 62.359375 201.230469 63.570312 " fill-opacity="1" fill-rule="nonzero"/><g clip-path="url(#f48cce66ac)"><path fill="#fcd215" d="M 272.703125 63.570312 C 272.703125 64.78125 271.726562 65.761719 270.519531 65.761719 L 207.050781 65.761719 C 205.84375 65.761719 204.867188 64.78125 204.867188 63.570312 C 204.867188 62.359375 205.84375 61.375 207.050781 61.375 L 270.519531 61.375 C 271.726562 61.375 272.703125 62.359375 272.703125 63.570312 " fill-opacity="1" fill-rule="nonzero"/></g><path fill="#f14624" d="M 85.113281 68.640625 C 85.113281 65.839844 83.800781 63.347656 81.765625 61.742188 L 81.765625 52.328125 L 70.9375 52.328125 L 70.9375 61.742188 C 68.898438 63.347656 67.585938 65.839844 67.585938 68.640625 C 67.585938 71.445312 68.898438 73.933594 70.9375 75.542969 L 70.9375 81.574219 L 81.765625 81.574219 L 81.765625 75.542969 C 83.800781 73.933594 85.113281 71.445312 85.113281 68.640625 " fill-opacity="1" fill-rule="nonzero"/><path fill="#f9a72b" d="M 85.109375 52.566406 C 85.109375 53.644531 84.238281 54.519531 83.164062 54.519531 L 70.546875 54.519531 C 69.46875 54.519531 68.59375 53.644531 68.59375 52.566406 C 68.59375 51.488281 69.46875 50.613281 70.546875 50.613281 L 83.164062 50.613281 C 84.238281 50.613281 85.109375 51.488281 85.109375 52.566406 " fill-opacity="1" fill-rule="nonzero"/></svg>